REM DIRINDEX 1\2\6,1\2\4\7,1\2\4\8,1\2\5\9,1\3\12,1\3\10\13,1\3\10\14,1\3\10\15,1\3\11\16,1\3\11\17
REM DIRNAME folder01,folder02,folder03,folder04,folder05,folder06,folder07,folder08,folder09,folder10,folder11,folder12,folder13,folder14,folder15,folder16,folder17
TITLE ""
FILE "136.mp3" MP3
  TRACK 01 AUDIO
    TITLE "12:cjc048_10337"
    INDEX 01 00:00:00
  TRACK 02 AUDIO
    TITLE "16:cjc048_10338"
    INDEX 01 00:01:69
  TRACK 03 AUDIO
    TITLE "17:cjc048_10339"
    INDEX 01 00:02:57
  TRACK 04 AUDIO
    TITLE "16:cjc048_10340"
    INDEX 01 00:04:23
  TRACK 05 AUDIO
    TITLE "17:cjc048_10341"
    INDEX 01 00:05:10
  TRACK 06 AUDIO
    TITLE "16:cjc048_10342"
    INDEX 01 00:06:20
  TRACK 07 AUDIO
    TITLE "17:cjc048_10343"
    INDEX 01 00:07:15
  TRACK 08 AUDIO
    TITLE "16:cjc048_10344"
    INDEX 01 00:08:38
  TRACK 09 AUDIO
    TITLE "17:cjc048_10345"
    INDEX 01 00:09:36
  TRACK 10 AUDIO
    TITLE "16:cjc048_10346"
    INDEX 01 00:11:03
  TRACK 11 AUDIO
    TITLE "17:cjc048_10347"
    INDEX 01 00:12:07
  TRACK 12 AUDIO
    TITLE "16:cjc048_10348"
    INDEX 01 00:14:23
  TRACK 13 AUDIO
    TITLE "17:cjc048_10349"
    INDEX 01 00:15:17
  TRACK 14 AUDIO
    TITLE "16:cjc048_10350"
    INDEX 01 00:19:40
  TRACK 15 AUDIO
    TITLE "17:cjc048_10351"
    INDEX 01 00:20:43
  TRACK 16 AUDIO
    TITLE "16:cjc048_10352"
    INDEX 01 00:23:03
  TRACK 17 AUDIO
    TITLE "17:cjc048_10353"
    INDEX 01 00:23:69
  TRACK 18 AUDIO
    TITLE "16:cjc048_10354"
    INDEX 01 00:26:03
  TRACK 19 AUDIO
    TITLE "17:cjc048_10355"
    INDEX 01 00:27:00
  TRACK 20 AUDIO
    TITLE "16:cjc048_10356"
    INDEX 01 00:28:47
  TRACK 21 AUDIO
    TITLE "17:cjc048_10357"
    INDEX 01 00:29:58
  TRACK 22 AUDIO
    TITLE "16:cjc048_10358"
    INDEX 01 00:31:16
  TRACK 23 AUDIO
    TITLE "17:cjc048_10359"
    INDEX 01 00:32:43
  TRACK 24 AUDIO
    TITLE "16:cjc048_10360"
    INDEX 01 00:34:12
  TRACK 25 AUDIO
    TITLE "17:cjc048_10361"
    INDEX 01 00:35:23
  TRACK 26 AUDIO
    TITLE "16:cjc048_10362"
    INDEX 01 00:36:58
  TRACK 27 AUDIO
    TITLE "17:cjc048_10363"
    INDEX 01 00:38:02
  TRACK 28 AUDIO
    TITLE "16:cjc048_10364"
    INDEX 01 00:39:35
  TRACK 29 AUDIO
    TITLE "17:cjc048_10365"
    INDEX 01 00:40:50
  TRACK 30 AUDIO
    TITLE "16:cjc048_10366"
    INDEX 01 00:42:06
  TRACK 31 AUDIO
    TITLE "17:cjc048_10367"
    INDEX 01 00:43:21
  TRACK 32 AUDIO
    TITLE "16:cjc048_10368"
    INDEX 01 00:44:65
  TRACK 33 AUDIO
    TITLE "17:cjc048_10369"
    INDEX 01 00:46:09
  TRACK 34 AUDIO
    TITLE "16:cjc048_10370"
    INDEX 01 00:47:70
  TRACK 35 AUDIO
    TITLE "17:cjc048_10371"
    INDEX 01 00:49:23
  TRACK 36 AUDIO
    TITLE "16:cjc048_10372"
    INDEX 01 00:51:01
  TRACK 37 AUDIO
    TITLE "17:cjc048_10373"
    INDEX 01 00:52:37
  TRACK 38 AUDIO
    TITLE "16:cjc048_10374"
    INDEX 01 00:54:25
  TRACK 39 AUDIO
    TITLE "17:cjc048_10375"
    INDEX 01 00:56:02
  TRACK 40 AUDIO
    TITLE "16:cjc048_10376"
    INDEX 01 00:57:50
  TRACK 41 AUDIO
    TITLE "17:cjc048_10377"
    INDEX 01 00:58:60
  TRACK 42 AUDIO
    TITLE "16:cjc048_10378"
    INDEX 01 01:01:34
  TRACK 43 AUDIO
    TITLE "17:cjc048_10379"
    INDEX 01 01:02:57
  TRACK 44 AUDIO
    TITLE "16:cjc048_10380"
    INDEX 01 01:04:31
  TRACK 45 AUDIO
    TITLE "17:cjc048_10381"
    INDEX 01 01:05:42
  TRACK 46 AUDIO
    TITLE "16:cjc048_10382"
    INDEX 01 01:08:52
  TRACK 47 AUDIO
    TITLE "17:cjc048_10383"
    INDEX 01 01:10:02
  TRACK 48 AUDIO
    TITLE "16:cjc048_10384"
    INDEX 01 01:11:64
  TRACK 49 AUDIO
    TITLE "17:cjc048_10385"
    INDEX 01 01:13:02
  TRACK 50 AUDIO
    TITLE "16:cjc048_10386"
    INDEX 01 01:14:35
  TRACK 51 AUDIO
    TITLE "17:cjc048_10387"
    INDEX 01 01:15:35
  TRACK 52 AUDIO
    TITLE "16:cjc048_10388"
    INDEX 01 01:16:60
  TRACK 53 AUDIO
    TITLE "17:cjc048_10389"
    INDEX 01 01:18:15
  TRACK 54 AUDIO
    TITLE "16:cjc048_10390"
    INDEX 01 01:19:70
  TRACK 55 AUDIO
    TITLE "17:cjc048_10391"
    INDEX 01 01:20:57
  TRACK 56 AUDIO
    TITLE "16:cjc048_10392"
    INDEX 01 01:22:42
  TRACK 57 AUDIO
    TITLE "17:cjc048_10393"
    INDEX 01 01:23:32
  TRACK 58 AUDIO
    TITLE "16:cjc048_10394"
    INDEX 01 01:24:37
  TRACK 59 AUDIO
    TITLE "17:cjc048_10395"
    INDEX 01 01:25:49
  TRACK 60 AUDIO
    TITLE "16:cjc048_10396"
    INDEX 01 01:26:58
  TRACK 61 AUDIO
    TITLE "17:cjc048_10397"
    INDEX 01 01:28:06
  TRACK 62 AUDIO
    TITLE "16:cjc048_10398"
    INDEX 01 01:29:25
  TRACK 63 AUDIO
    TITLE "17:cjc048_10399"
    INDEX 01 01:30:22
  TRACK 64 AUDIO
    TITLE "16:cjc048_10400"
    INDEX 01 01:31:43
  TRACK 65 AUDIO
    TITLE "17:cjc048_10401"
    INDEX 01 01:32:60
  TRACK 66 AUDIO
    TITLE "16:cjc048_10402"
    INDEX 01 01:34:73
  TRACK 67 AUDIO
    TITLE "17:cjc048_10403"
    INDEX 01 01:36:17
  TRACK 68 AUDIO
    TITLE "16:cjc048_10404"
    INDEX 01 01:37:42
  TRACK 69 AUDIO
    TITLE "17:cjc048_10405"
    INDEX 01 01:38:42
  TRACK 70 AUDIO
    TITLE "16:cjc048_10406"
    INDEX 01 01:39:68
  TRACK 71 AUDIO
    TITLE "17:cjc048_10407"
    INDEX 01 01:41:03
  TRACK 72 AUDIO
    TITLE "16:cjc048_10408"
    INDEX 01 01:42:10
  TRACK 73 AUDIO
    TITLE "17:cjc048_10409"
    INDEX 01 01:43:07
  TRACK 74 AUDIO
    TITLE "16:cjc048_10410"
    INDEX 01 01:45:14
  TRACK 75 AUDIO
    TITLE "17:cjc048_10411"
    INDEX 01 01:45:71
  TRACK 76 AUDIO
    TITLE "16:cjc048_10412"
    INDEX 01 01:47:50
  TRACK 77 AUDIO
    TITLE "17:cjc048_10413"
    INDEX 01 01:48:40
  TRACK 78 AUDIO
    TITLE "16:cjc048_10414"
    INDEX 01 01:50:00
  TRACK 79 AUDIO
    TITLE "17:cjc048_10415"
    INDEX 01 01:50:54
  TRACK 80 AUDIO
    TITLE "0:"
    INDEX 01 01:52:63
